PathFileType  4	(X/Y/Z) C:\MyRepositories_Xander\mocap-processing\Testing_HJC_Function\TRCs_w_HJCs
DataRate	CameraRate	NumFrames	NumMarkers	Units	OrigDataRate	OrigDataStartFrame	OrigNumFrames
  240.0		  240.0		    4		    151		 mm	  240.0	      341	    544
Frame#	Time	LFHD			RFHD			LBHD			C7			T10			CLAV			STRN			RBAK			LSHO			LUPA			LELB			LFRM			LWRA			LWRB			LFIN			RSHO			RUPA			RELB			RFRM			RWRA			RWRB			RFIN			LASI			RASI			LPSI			RPSI			SACR			LTHI			LKNE			LMKN			LTIB			LANK			LMED			LHEE			LTOE			RTHI			RKNE			RMKN			RTIB			RANK			RMED			RHEE			RTOE			PELO			PELA			PELL			PELP			LFEO			LFEA			LFEL			LFEP			LTIO			LTIA			LTIL			LTIP			LFOO			LFOA			LFOL			LFOP			LTOO			LTOA			LTOL			LTOP			RFEO			RFEA			RFEL			RFEP			RTIO			RTIA			RTIL			RTIP			RFOO			RFOA			RFOL			RFOP			RTOO			RTOA			RTOL			RTOP			HEDO			HEDA			HEDL			HEDP			LCLO			LCLA			LCLL			LCLP			RCLO			RCLA			RCLL			RCLP			TRXO			TRXA			TRXL			TRXP			LHUO			LHUA			LHUL			LHUP			LRAO			LRAA			LRAL			LRAP			LHNO			LHNA			LHNL			LHNP			RHUO			RHUA			RHUL			RHUP			RRAO			RRAA			RRAL			RRAP			RHNO			RHNA			RHNL			RHNP			RBHD			*120			*121			*122			LHipAngles			LKneeAngles			LAbsAnkleAngle			LAnkleAngles			RHipAngles			RKneeAngles			RAnkleAngles			RAbsAnkleAngle			LPelvisAngles			RPelvisAngles			LFootProgressAngles			RFootProgressAngles			RNeckAngles			LNeckAngles			RSpineAngles			LSpineAngles			LShoulderAngles			LElbowAngles			LWristAngles			RShoulderAngles			RElbowAngles			RWristAngles			RThoraxAngles			LThoraxAngles			RHeadAngles			LHeadAngles			RHJC			LHJC			
		X1	Y1	Z1	X2	Y2	Z2	X3	Y3	Z3	X4	Y4	Z4	X5	Y5	Z5	X6	Y6	Z6	X7	Y7	Z7	X8	Y8	Z8	X9	Y9	Z9	X10	Y10	Z10	X11	Y11	Z11	X12	Y12	Z12	X13	Y13	Z13	X14	Y14	Z14	X15	Y15	Z15	X16	Y16	Z16	X17	Y17	Z17	X18	Y18	Z18	X19	Y19	Z19	X20	Y20	Z20	X21	Y21	Z21	X22	Y22	Z22	X23	Y23	Z23	X24	Y24	Z24	X25	Y25	Z25	X26	Y26	Z26	X27	Y27	Z27	X28	Y28	Z28	X29	Y29	Z29	X30	Y30	Z30	X31	Y31	Z31	X32	Y32	Z32	X33	Y33	Z33	X34	Y34	Z34	X35	Y35	Z35	X36	Y36	Z36	X37	Y37	Z37	X38	Y38	Z38	X39	Y39	Z39	X40	Y40	Z40	X41	Y41	Z41	X42	Y42	Z42	X43	Y43	Z43	X44	Y44	Z44	X45	Y45	Z45	X46	Y46	Z46	X47	Y47	Z47	X48	Y48	Z48	X49	Y49	Z49	X50	Y50	Z50	X51	Y51	Z51	X52	Y52	Z52	X53	Y53	Z53	X54	Y54	Z54	X55	Y55	Z55	X56	Y56	Z56	X57	Y57	Z57	X58	Y58	Z58	X59	Y59	Z59	X60	Y60	Z60	X61	Y61	Z61	X62	Y62	Z62	X63	Y63	Z63	X64	Y64	Z64	X65	Y65	Z65	X66	Y66	Z66	X67	Y67	Z67	X68	Y68	Z68	X69	Y69	Z69	X70	Y70	Z70	X71	Y71	Z71	X72	Y72	Z72	X73	Y73	Z73	X74	Y74	Z74	X75	Y75	Z75	X76	Y76	Z76	X77	Y77	Z77	X78	Y78	Z78	X79	Y79	Z79	X80	Y80	Z80	X81	Y81	Z81	X82	Y82	Z82	X83	Y83	Z83	X84	Y84	Z84	X85	Y85	Z85	X86	Y86	Z86	X87	Y87	Z87	X88	Y88	Z88	X89	Y89	Z89	X90	Y90	Z90	X91	Y91	Z91	X92	Y92	Z92	X93	Y93	Z93	X94	Y94	Z94	X95	Y95	Z95	X96	Y96	Z96	X97	Y97	Z97	X98	Y98	Z98	X99	Y99	Z99	X100	Y100	Z100	X101	Y101	Z101	X102	Y102	Z102	X103	Y103	Z103	X104	Y104	Z104	X105	Y105	Z105	X106	Y106	Z106	X107	Y107	Z107	X108	Y108	Z108	X109	Y109	Z109	X110	Y110	Z110	X111	Y111	Z111	X112	Y112	Z112	X113	Y113	Z113	X114	Y114	Z114	X115	Y115	Z115	X116	Y116	Z116	X117	Y117	Z117	X118	Y118	Z118	X119	Y119	Z119	X120	Y120	Z120	X121	Y121	Z121	X122	Y122	Z122	X123	Y123	Z123	X124	Y124	Z124	X125	Y125	Z125	X126	Y126	Z126	X127	Y127	Z127	X128	Y128	Z128	X129	Y129	Z129	X130	Y130	Z130	X131	Y131	Z131	X132	Y132	Z132	X133	Y133	Z133	X134	Y134	Z134	X135	Y135	Z135	X136	Y136	Z136	X137	Y137	Z137	X138	Y138	Z138	X139	Y139	Z139	X140	Y140	Z140	X141	Y141	Z141	X142	Y142	Z142	X143	Y143	Z143	X144	Y144	Z144	X145	Y145	Z145	X146	Y146	Z146	X147	Y147	Z147	X148	Y148	Z148	X149	Y149	Z149	X150	Y150	Z150	X151	Y151	Z151	

341	1.41667	-568.559	1649.579	221.566	-422.555	1655.776	218.359	-516.546	1536.695	340.552	-478.722	1420.394	362.071	-470.513	1213.874	395.169	-489.537	1361.547	219.455	-482.691	1149.148	169.096	-390.349	1355.703	385.917	-633.788	1433.140	333.922	-733.534	1286.347	312.861	-814.754	1224.455	283.686	-905.860	1163.716	271.075	-1007.654	1129.698	261.617	-983.106	1086.212	233.274	-1031.797	1054.009	266.311	-321.447	1424.588	327.481	-247.560	1274.653	330.676	-194.676	1184.052	324.358	-95.300	1109.673	315.884	3.199	1070.250	304.581	-29.275	1036.583	307.871	27.154	1015.681	341.095	-613.960	951.842	198.301	-355.421	931.130	205.648	-541.506	991.303	381.853	-426.409	980.958	382.838	-487.223	967.276	396.479	-704.924	664.227	283.639	-681.914	495.361	328.660	-552.467	470.253	334.773	-725.378	266.542	352.538	-685.158	95.630	374.754	-605.429	99.727	347.194	-645.264	86.603	425.432	-662.991	71.060	219.180	-265.018	639.454	289.621	-264.552	493.024	304.775	-395.821	461.982	319.053	-185.841	267.835	353.044	-193.376	94.690	357.085	-277.257	97.308	349.834	-230.629	84.968	424.578	-216.806	65.491	217.720	-493.074	857.141	259.223	-489.880	833.224	79.378	-673.879	871.626	254.085	-478.041	1036.430	235.646	-617.334	488.686	323.880	-651.811	424.482	-52.289	-997.438	527.974	352.013	-583.477	864.383	256.654	-649.239	97.476	362.338	-769.094	72.805	11.942	-999.216	137.509	479.231	-619.214	465.633	326.147	-675.797	85.952	221.714	-653.637	285.235	219.810	-874.348	108.193	238.779	-658.626	85.952	421.498	-681.520	85.952	155.120	-674.134	152.380	154.485	-747.704	93.366	160.808	-675.797	85.952	221.714	-326.738	481.349	312.967	-364.694	421.718	-60.151	-696.883	411.856	361.727	-402.672	849.899	261.792	-232.212	95.902	353.728	-200.913	64.072	-19.850	-596.392	4.192	331.030	-321.355	459.398	315.289	-206.817	86.389	212.172	-255.776	281.616	208.900	-401.610	37.320	199.156	-220.238	86.389	413.023	-202.343	86.389	145.221	-218.663	151.465	144.131	-267.274	70.033	140.883	-206.817	86.389	212.172	NaN	NaN	NaN	NaN	NaN	NaN	NaN	NaN	NaN	NaN	NaN	NaN	-645.535	1378.141	324.643	-737.556	1423.864	170.128	-607.294	1557.190	354.852	-489.000	1361.279	226.429	-313.026	1370.329	316.479	-227.553	1418.442	144.615	-283.271	1178.598	277.602	-489.000	1361.279	226.429	-489.000	1361.279	226.429	-503.699	1368.621	35.412	-297.965	1368.738	212.015	-482.120	1169.842	218.541	-804.411	1236.712	242.552	-688.861	1220.609	46.665	-920.124	1414.817	159.654	-645.535	1378.141	324.643	-997.427	1110.760	241.368	-953.978	1046.053	41.695	-1106.212	1278.201	163.434	-817.922	1227.896	242.469	-1083.574	1006.397	257.572	-1017.677	969.624	371.066	-1001.040	926.826	183.869	-997.427	1110.760	241.368	-210.011	1183.722	281.256	-388.071	1102.736	189.545	-276.022	1110.962	473.670	-313.026	1370.329	316.479	-12.775	1052.485	299.294	-115.827	883.992	200.226	-80.289	978.068	496.088	-196.205	1174.536	282.518	75.194	967.122	346.605	47.205	1006.075	468.929	168.692	1059.099	338.710	-12.775	1052.485	299.294	NaN	NaN	NaN	-475.114	1381.303	365.781	-469.685	1533.024	336.903	NaN	NaN	NaN	0.276	-5.974	2.649	-0.819	-14.137	4.460	0.000	0.000	-5.177	0.005	13.533	-5.325	16.291	6.874	0.127	2.351	-11.143	1.585	-0.008	-0.338	-4.942	0.000	0.000	-4.942	-4.752	1.012	-7.491	4.752	-1.012	-7.491	6.368	-4.912	90.000	14.109	-3.823	90.000	NaN	NaN	NaN	NaN	NaN	NaN	7.513	-5.030	9.342	-7.513	5.030	9.342	-48.617	-152.108	-22.855	0.000	0.000	-22.421	-18.700	126.754	-0.467	-27.112	-118.282	-5.325	0.000	0.000	-30.621	-19.569	122.531	1.321	-2.056	4.400	2.359	2.056	-4.400	2.359	NaN	NaN	NaN	NaN	NaN	NaN	-399.335	860.178	276.697	-569.892	875.509	275.237
342	1.42083	-568.694	1649.621	221.733	-422.899	1655.748	218.473	-516.580	1536.617	340.661	-478.830	1420.379	362.241	-470.520	1213.788	395.187	-489.638	1361.730	219.475	-482.808	1149.092	168.845	-390.465	1355.545	386.039	-633.890	1432.953	333.999	-733.594	1286.066	312.819	-814.720	1224.210	283.493	-905.656	1163.351	270.607	-1007.425	1129.208	261.134	-982.723	1085.826	232.643	-1031.193	1053.368	265.647	-321.551	1424.442	327.738	-247.609	1274.371	330.897	-194.573	1183.869	324.581	-95.121	1109.934	316.186	3.522	1070.645	304.710	-28.885	1036.913	307.924	27.627	1016.148	341.159	-613.987	951.808	198.284	-355.471	931.127	205.549	-541.494	991.242	381.855	-426.434	980.971	382.852	-487.304	967.225	396.474	-704.926	664.202	283.567	-681.892	495.309	328.576	-552.513	470.213	334.647	-725.342	266.519	352.544	-685.184	95.630	374.751	-605.407	99.638	346.946	-645.283	86.611	425.428	-663.090	71.265	219.321	-265.049	639.405	289.550	-264.598	493.061	304.805	-395.808	461.977	318.961	-185.829	267.846	353.047	-193.180	95.133	357.262	-277.248	97.281	349.793	-230.627	84.880	424.544	-216.815	65.500	217.649	-493.085	857.108	259.147	-489.941	833.234	79.295	-673.893	871.572	254.065	-478.081	1036.404	235.608	-617.311	488.640	323.793	-651.792	424.473	-52.374	-997.411	527.891	351.940	-583.489	864.340	256.606	-649.294	97.433	362.242	-770.080	72.900	12.154	-998.948	137.599	480.063	-619.196	465.587	326.059	-675.919	85.916	221.631	-653.676	285.189	219.709	-874.453	108.242	238.783	-658.660	85.916	421.407	-681.673	85.916	155.039	-674.258	152.340	154.399	-747.850	93.358	160.756	-675.919	85.916	221.631	-326.777	481.404	313.064	-365.089	421.506	-59.920	-696.836	412.026	362.216	-402.682	849.876	261.687	-232.014	96.125	353.812	-199.643	64.595	-19.592	-595.936	4.100	330.033	-321.379	459.457	315.385	-206.619	86.626	212.255	-255.761	281.808	208.974	-401.368	37.376	199.254	-220.027	86.626	413.107	-202.150	86.626	145.304	-218.531	151.687	144.210	-267.066	70.210	140.970	-206.619	86.626	212.255	NaN	NaN	NaN	NaN	NaN	NaN	NaN	NaN	NaN	NaN	NaN	NaN	-645.551	1377.946	324.659	-737.624	1423.675	170.303	-607.609	1556.919	355.048	-489.099	1361.455	226.449	-313.181	1370.188	316.669	-227.502	1418.445	144.933	-283.602	1178.465	277.552	-489.099	1361.455	226.449	-489.099	1361.455	226.449	-503.852	1368.978	35.489	-298.116	1368.963	211.990	-482.187	1170.073	218.376	-804.212	1236.339	242.363	-688.173	1220.012	46.744	-919.798	1414.326	158.943	-645.551	1377.946	324.659	-997.122	1110.338	240.818	-953.132	1045.434	41.387	-1105.742	1277.599	162.425	-817.715	1227.519	242.255	-1082.719	1005.515	256.811	-1016.547	968.770	370.132	-999.863	926.569	182.831	-997.122	1110.338	240.818	-209.922	1183.502	281.484	-388.255	1102.049	190.297	-275.399	1110.936	474.355	-313.181	1370.188	316.669	-12.413	1052.860	299.383	-115.202	883.973	200.945	-79.293	978.738	496.389	-196.096	1174.357	282.737	75.842	967.759	346.634	47.673	1006.482	468.989	169.016	1060.074	338.869	-12.413	1052.860	299.383	NaN	NaN	NaN	-475.460	1381.030	366.411	NaN	NaN	NaN	NaN	NaN	NaN	0.280	-5.959	2.655	-0.802	-14.288	4.457	0.000	0.000	-5.172	0.005	13.659	-5.323	16.280	6.909	0.177	2.398	-11.376	1.609	-0.007	-0.162	-4.940	0.000	0.000	-4.940	-4.743	0.996	-7.479	4.743	-0.996	-7.479	6.393	-4.938	90.000	14.162	-3.819	90.000	NaN	NaN	NaN	NaN	NaN	NaN	7.520	-5.028	9.384	-7.520	5.028	9.384	-48.529	-151.890	-22.875	0.000	-0.000	-22.403	-18.962	126.442	-0.315	-27.142	-118.088	-5.248	0.000	-0.000	-30.697	-19.557	122.280	1.361	-2.067	4.417	2.416	2.067	-4.417	2.416	NaN	NaN	NaN	NaN	NaN	NaN	-399.338	860.239	276.675	-569.886	875.463	275.197
343	1.42500	-568.833	1649.628	221.932	-422.643	1655.978	218.929	-516.669	1536.612	340.798	-478.792	1420.298	362.234	-470.526	1213.694	395.158	-489.441	1361.537	219.691	-482.989	1149.418	168.818	-390.554	1355.391	386.145	-634.080	1432.902	334.155	-733.486	1285.873	312.725	-814.622	1224.057	283.313	-905.491	1162.996	270.175	-1007.197	1128.640	260.580	-982.332	1085.369	231.835	-1030.633	1052.759	264.865	-321.586	1424.241	328.009	-247.642	1274.120	331.125	-194.532	1183.715	324.920	-94.998	1110.034	316.415	3.838	1071.058	304.803	-28.433	1037.213	308.033	28.076	1016.591	341.162	-614.148	951.832	198.321	-355.488	931.171	205.524	-541.436	991.277	381.873	-426.413	980.949	382.830	-487.272	967.208	396.469	-704.943	664.167	283.495	-682.109	495.425	328.533	-552.713	470.166	334.098	-725.390	266.496	352.436	-685.187	95.629	374.745	-605.393	99.773	347.093	-645.286	86.578	425.401	-663.052	71.325	219.301	-265.106	639.565	289.382	-264.797	492.915	304.421	-395.979	462.051	318.814	-185.845	267.820	353.006	-193.223	95.045	357.195	-277.256	97.281	349.761	-230.606	84.960	424.573	-216.824	65.488	217.682	-493.151	857.129	259.137	-490.046	833.293	79.280	-673.961	871.571	254.102	-478.174	1036.432	235.634	-617.524	488.743	323.834	-651.533	424.512	-52.290	-997.578	528.061	351.484	-583.556	864.350	256.620	-649.278	97.494	362.301	-769.399	72.799	11.968	-999.205	137.414	479.470	-619.395	465.690	326.101	-675.868	85.966	221.683	-653.770	285.256	219.779	-874.421	108.145	238.799	-658.646	85.966	421.463	-681.608	85.966	155.090	-674.242	152.396	154.455	-747.793	93.359	160.796	-675.868	85.966	221.683	-326.994	481.256	312.541	-364.612	422.007	-60.697	-697.235	411.850	360.875	-402.745	849.907	261.655	-232.058	96.078	353.759	-199.878	64.055	-19.611	-595.947	3.879	330.305	-321.586	459.314	314.889	-206.678	86.588	212.199	-255.914	281.745	208.919	-401.404	37.242	199.227	-220.058	86.588	413.053	-202.218	86.588	145.247	-218.630	151.640	144.154	-267.127	70.139	140.923	-206.678	86.588	212.199	NaN	NaN	NaN	NaN	NaN	NaN	NaN	NaN	NaN	NaN	NaN	NaN	-645.765	1377.901	324.807	-737.735	1423.744	170.036	-607.681	1557.165	355.274	-488.904	1361.257	226.665	-313.177	1370.004	316.889	-227.530	1418.445	145.381	-283.486	1178.500	277.627	-488.904	1361.257	226.665	-488.904	1361.257	226.665	-503.613	1368.928	35.629	-297.833	1368.591	212.247	-482.174	1169.796	218.458	-803.950	1236.102	242.201	-687.300	1219.646	47.072	-919.378	1413.797	158.212	-645.765	1377.901	324.807	-996.817	1109.849	240.150	-952.065	1044.722	40.857	-1105.385	1276.985	161.152	-817.451	1227.264	242.057	-1081.984	1004.825	255.969	-1015.543	967.961	368.932	-999.122	926.436	181.652	-996.817	1109.850	240.150	-209.940	1183.280	281.845	-388.625	1101.398	191.742	-274.480	1111.299	475.249	-313.177	1370.004	316.889	-12.033	1053.221	299.483	-114.763	883.694	202.107	-77.955	979.699	497.027	-196.087	1174.176	283.080	76.345	968.330	346.522	48.220	1006.818	468.822	169.233	1060.752	338.797	-12.033	1053.221	299.483	NaN	NaN	NaN	-475.553	1381.017	366.551	-470.093	1533.068	337.419	NaN	NaN	NaN	0.312	-5.875	2.673	-0.854	-14.249	4.458	0.000	0.000	-5.178	0.005	13.562	-5.327	16.244	6.793	0.113	2.431	-11.207	1.464	-0.008	-0.206	-5.008	0.000	0.000	-5.008	-4.734	0.984	-7.468	4.734	-0.984	-7.468	6.350	-4.927	90.000	14.190	-3.811	90.000	NaN	NaN	NaN	NaN	NaN	NaN	7.457	-5.008	9.418	-7.457	5.008	9.418	-48.334	-151.667	-22.917	-0.000	0.000	-22.397	-19.113	126.044	-0.258	-27.179	-117.729	-5.180	0.000	-0.000	-30.814	-19.565	121.924	1.535	-2.011	4.402	2.454	2.011	-4.402	2.454	NaN	NaN	NaN	NaN	NaN	NaN	-399.404	860.144	276.619	-570.037	875.464	275.200
344	1.42917	-568.960	1649.653	222.085	-423.079	1655.816	218.866	-516.772	1536.654	340.934	-478.822	1420.292	362.369	-470.516	1213.630	395.146	-489.497	1361.804	219.473	-483.037	1149.361	168.601	-390.645	1355.255	386.247	-634.099	1432.775	334.302	-733.514	1285.599	312.642	-814.576	1223.672	283.051	-905.307	1162.647	269.737	-1006.913	1128.171	260.060	-981.923	1084.951	231.190	-1030.206	1052.144	264.000	-321.637	1424.099	328.236	-247.834	1274.053	331.474	-194.383	1183.607	325.017	-94.632	1110.110	316.521	4.076	1071.599	305.045	-28.037	1037.565	308.229	28.447	1017.167	341.497	-614.155	951.771	198.352	-355.408	931.219	205.622	-541.476	991.240	381.915	-426.414	980.933	382.867	-487.297	967.174	396.494	-704.966	664.166	283.440	-682.015	495.316	328.506	-552.558	470.207	334.511	-725.366	266.497	352.510	-685.187	95.625	374.733	-605.438	99.762	347.236	-645.290	86.610	425.420	-663.037	71.090	219.203	-264.994	639.414	289.401	-264.586	492.967	304.728	-395.878	461.988	318.747	-185.832	267.843	352.990	-193.404	94.658	356.892	-277.262	97.290	349.765	-230.580	84.939	424.498	-216.809	65.470	217.648	-493.092	857.112	259.190	-489.930	833.298	79.331	-673.907	871.475	254.109	-478.189	1036.425	235.710	-617.427	488.647	323.833	-651.275	424.426	-52.339	-997.530	527.895	351.334	-583.499	864.293	256.650	-649.258	97.489	362.345	-768.806	72.715	11.907	-999.291	137.452	478.930	-619.303	465.594	326.103	-675.830	85.962	221.724	-653.711	285.250	219.821	-874.383	108.163	238.812	-658.636	85.962	421.506	-681.561	85.962	155.131	-674.188	152.392	154.496	-747.745	93.363	160.826	-675.830	85.962	221.724	-326.752	481.330	313.116	-365.839	421.278	-59.897	-696.859	412.050	363.051	-402.684	849.931	261.730	-232.245	95.877	353.591	-201.491	64.186	-20.017	-596.448	4.248	331.383	-321.370	459.378	315.421	-206.886	86.360	212.028	-255.807	281.598	208.771	-401.692	37.331	199.059	-220.258	86.360	412.883	-202.428	86.360	145.077	-218.735	151.439	143.991	-267.364	70.017	140.753	-206.886	86.360	212.028	NaN	NaN	NaN	NaN	NaN	NaN	NaN	NaN	NaN	NaN	NaN	NaN	-645.702	1377.765	324.906	-738.046	1423.646	170.329	-607.878	1557.090	355.537	-488.959	1361.522	226.447	-313.305	1369.859	317.078	-227.182	1418.341	145.702	-283.873	1178.240	277.660	-488.959	1361.522	226.447	-488.959	1361.522	226.447	-503.699	1369.254	35.348	-297.822	1368.880	212.001	-482.211	1169.996	218.177	-803.835	1235.713	241.955	-686.743	1219.327	46.798	-919.373	1413.529	157.704	-645.702	1377.765	324.906	-996.470	1109.417	239.572	-951.375	1044.391	40.491	-1104.946	1276.365	160.471	-817.319	1226.873	241.788	-1081.425	1004.110	254.812	-1015.126	966.974	367.793	-998.201	926.196	180.365	-996.470	1109.417	239.572	-209.686	1183.236	281.904	-388.216	1101.172	191.379	-274.435	1110.850	475.217	-313.305	1369.859	317.078	-11.705	1053.673	299.702	-113.836	884.193	202.032	-77.749	979.839	496.883	-195.827	1174.167	283.150	76.877	969.040	346.995	48.292	1007.454	469.278	169.517	1061.818	339.506	-11.705	1053.673	299.702	NaN	NaN	NaN	-475.574	1380.889	366.623	-470.155	1532.989	337.416	NaN	NaN	NaN	0.328	-5.870	2.676	-0.832	-14.183	4.446	0.000	0.000	-5.186	0.005	13.479	-5.333	16.248	7.031	0.194	2.365	-11.246	1.649	-0.008	-0.400	-4.905	0.000	0.000	-4.905	-4.711	1.002	-7.460	4.711	-1.002	-7.460	6.356	-4.919	90.000	14.097	-3.809	90.000	NaN	NaN	NaN	NaN	NaN	NaN	7.440	-5.032	9.428	-7.440	5.032	9.428	-48.266	-151.581	-22.975	-0.000	0.000	-22.390	-19.154	125.872	-0.036	-27.277	-117.833	-5.186	0.000	0.000	-30.852	-19.606	121.948	1.422	-2.016	4.410	2.472	2.016	-4.410	2.472	NaN	NaN	NaN	NaN	NaN	NaN	-399.325	860.111	276.663	-570.014	875.402	275.250
